<svg xmlns="http://www.w3.org/2000/svg" xmlns:xlink="http://www.w3.org/1999/xlink" width="327" height="473" viewBox="0 0 327 473">
  <defs>
    <clipPath id="clip-path">
      <rect id="Rectangle_2319" data-name="Rectangle 2319" width="327" height="473" transform="translate(-11812 2441)" fill="#fff" stroke="#707070" stroke-width="1"/>
    </clipPath>
  </defs>
  <g id="Mask_Group_141" data-name="Mask Group 141" transform="translate(11812 -2441)" clip-path="url(#clip-path)">
    <g id="Group_423" data-name="Group 423" transform="translate(-5182.121 -7306.257) rotate(-45)">
      <rect id="Rectangle_2286" data-name="Rectangle 2286" width="8" height="598.465" transform="translate(-11984 2161.763)" fill="#fbf2c0"/>
      <rect id="Rectangle_2287" data-name="Rectangle 2287" width="8" height="598.465" transform="translate(-11944 2161.763)" fill="#fbf2c0"/>
      <rect id="Rectangle_2288" data-name="Rectangle 2288" width="8" height="598.465" transform="translate(-11904 2161.763)" fill="#fbf2c0"/>
      <rect id="Rectangle_2289" data-name="Rectangle 2289" width="8" height="598.465" transform="translate(-11864 2161.763)" fill="#fbf2c0"/>
      <rect id="Rectangle_2290" data-name="Rectangle 2290" width="8" height="598.465" transform="translate(-11824 2161.763)" fill="#fbf2c0"/>
      <rect id="Rectangle_2291" data-name="Rectangle 2291" width="8" height="598.465" transform="translate(-11784 2161.763)" fill="#fbf2c0"/>
      <rect id="Rectangle_2292" data-name="Rectangle 2292" width="8" height="598.465" transform="translate(-11744 2161.763)" fill="#fbf2c0"/>
      <rect id="Rectangle_2293" data-name="Rectangle 2293" width="8" height="598.465" transform="translate(-11704 2161.763)" fill="#fbf2c0"/>
      <rect id="Rectangle_2294" data-name="Rectangle 2294" width="8" height="598.465" transform="translate(-11664 2161.763)" fill="#fbf2c0"/>
      <rect id="Rectangle_2295" data-name="Rectangle 2295" width="8" height="598.465" transform="translate(-11624 2161.763)" fill="#fbf2c0"/>
      <rect id="Rectangle_2296" data-name="Rectangle 2296" width="8" height="598.465" transform="translate(-11584 2161.763)" fill="#fbf2c0"/>
      <rect id="Rectangle_2297" data-name="Rectangle 2297" width="8" height="598.465" transform="translate(-11544 2161.763)" fill="#fbf2c0"/>
      <rect id="Rectangle_2298" data-name="Rectangle 2298" width="8" height="598.465" transform="translate(-11504 2161.763)" fill="#fbf2c0"/>
      <rect id="Rectangle_2299" data-name="Rectangle 2299" width="8" height="598.465" transform="translate(-11464 2161.763)" fill="#fbf2c0"/>
      <rect id="Rectangle_2300" data-name="Rectangle 2300" width="8" height="598.465" transform="translate(-11424 2161.763)" fill="#fbf2c0"/>
      <rect id="Rectangle_2301" data-name="Rectangle 2301" width="8" height="598.465" transform="translate(-11384 2161.763)" fill="#fbf2c0"/>
      <rect id="Rectangle_2302" data-name="Rectangle 2302" width="8" height="598.465" transform="translate(-11344 2161.763)" fill="#fbf2c0"/>
      <rect id="Rectangle_2303" data-name="Rectangle 2303" width="8" height="598.465" transform="translate(-11304 2161.763)" fill="#fbf2c0"/>
      <rect id="Rectangle_2304" data-name="Rectangle 2304" width="8" height="704" transform="translate(-11280 2336) rotate(90)" fill="#ddb892"/>
      <rect id="Rectangle_2305" data-name="Rectangle 2305" width="8" height="704" transform="translate(-11280 2376) rotate(90)" fill="#ddb892"/>
      <rect id="Rectangle_2306" data-name="Rectangle 2306" width="8" height="704" transform="translate(-11280 2296) rotate(90)" fill="#ddb892"/>
      <rect id="Rectangle_2307" data-name="Rectangle 2307" width="8" height="704" transform="translate(-11280 2256) rotate(90)" fill="#ddb892"/>
      <rect id="Rectangle_2308" data-name="Rectangle 2308" width="8" height="704" transform="translate(-11280 2216) rotate(90)" fill="#ddb892"/>
      <rect id="Rectangle_2309" data-name="Rectangle 2309" width="8" height="704" transform="translate(-11280 2176) rotate(90)" fill="#ddb892"/>
      <rect id="Rectangle_2310" data-name="Rectangle 2310" width="8" height="704" transform="translate(-11280 2416) rotate(90)" fill="#ddb892"/>
      <rect id="Rectangle_2311" data-name="Rectangle 2311" width="8" height="704" transform="translate(-11280 2456) rotate(90)" fill="#ddb892"/>
      <rect id="Rectangle_2312" data-name="Rectangle 2312" width="8" height="704" transform="translate(-11280 2496) rotate(90)" fill="#ddb892"/>
      <rect id="Rectangle_2313" data-name="Rectangle 2313" width="8" height="704" transform="translate(-11280 2576) rotate(90)" fill="#ddb892"/>
      <rect id="Rectangle_2314" data-name="Rectangle 2314" width="8" height="704" transform="translate(-11280 2616) rotate(90)" fill="#ddb892"/>
      <rect id="Rectangle_2315" data-name="Rectangle 2315" width="8" height="704" transform="translate(-11280 2536) rotate(90)" fill="#ddb892"/>
      <rect id="Rectangle_2316" data-name="Rectangle 2316" width="8" height="704" transform="translate(-11280 2656) rotate(90)" fill="#ddb892"/>
      <rect id="Rectangle_2317" data-name="Rectangle 2317" width="8" height="704" transform="translate(-11280 2696) rotate(90)" fill="#ddb892"/>
      <rect id="Rectangle_2318" data-name="Rectangle 2318" width="8" height="704" transform="translate(-11280 2736) rotate(90)" fill="#ddb892"/>
    </g>
  </g>
</svg>
